<svg width="738" height="193" viewBox="0 0 738 193" fill="none" xmlns="http://www.w3.org/2000/svg">
<path d="M586.279 4.64285C586.333 6.46408 585.675 8.20904 584.304 9.87775" stroke="#8FB092" stroke-width="2"/>
<path d="M584.304 9.87779L570.619 9.71631" stroke="#9ED6A4" stroke-width="2"/>
<path d="M570.615 9.71627C556.877 1.62394 541.088 -0.138978 523.249 4.42754C521.281 4.92994 518.959 5.75534 516.285 6.9037C513.664 8.03411 511.384 8.92677 509.442 9.58169" stroke="#8FB092" stroke-width="2"/>
<path d="M509.443 9.58165L488.428 9.28558" stroke="#9ED6A4" stroke-width="2"/>
<path d="M488.428 9.28558L489.201 4.26601C489.216 4.17216 489.2 4.07738 489.155 3.98782C489.11 3.89825 489.038 3.8159 488.942 3.74611C488.846 3.67631 488.729 3.62064 488.598 3.5827C488.467 3.54475 488.326 3.52538 488.183 3.52586L427.886 3.86229" stroke="#8FB092" stroke-width="2"/>
<path d="M570.615 9.71631C574.416 14.9826 576.167 20.4911 575.869 26.2419C575.842 26.9237 575.312 27.314 574.28 27.4127L550.333 29.5928C550.098 29.6148 549.859 29.5996 549.636 29.5484C549.412 29.4971 549.21 29.4113 549.047 29.2981C548.884 29.1849 548.763 29.0476 548.697 28.8975C548.63 28.7475 548.618 28.5891 548.663 28.4354C549.464 25.5825 549.05 23.1602 547.421 21.1685C546.986 20.6392 546.341 20.2668 545.486 20.0515C532.127 16.8352 525.244 25.7978 521.966 32.6879C519.542 37.7613 507.813 62.9804 519.868 64.9586C530.885 66.7888 537.687 59.8986 540.11 53.8563C540.183 53.6813 540.311 53.5184 540.484 53.3781C540.658 53.2378 540.874 53.1233 541.118 53.0421C541.362 52.9608 541.629 52.9146 541.901 52.9065C542.173 52.8984 542.444 52.9286 542.696 52.995L565.076 58.8086C565.232 58.8484 565.374 58.9086 565.493 58.9856C565.613 59.0625 565.708 59.1546 565.773 59.2563C565.837 59.3581 565.87 59.4674 565.87 59.5778C565.869 59.6881 565.834 59.7973 565.768 59.8986C562.816 64.4741 559.069 69.5879 554.181 73.1137C546.837 78.4069 537.402 81.6726 525.876 82.9106" stroke="#34883B" stroke-width="2"/>
<path d="M525.875 82.9109L514.227 82.897" stroke="#8FB092" stroke-width="2"/>
<path d="M514.23 82.8972C470.265 78.9004 485.11 39.2148 496.493 22.4469C498.761 19.0916 503.078 14.8032 509.445 9.58176" stroke="#34883B" stroke-width="2"/>
<path d="M488.425 9.28557L485.228 19.3247C485.102 19.7201 484.774 20.0748 484.3 20.3296C483.825 20.5844 483.233 20.7237 482.621 20.7243L454.601 20.7108C454.447 20.7096 454.297 20.7454 454.178 20.8119C454.059 20.8783 453.978 20.9713 453.949 21.0742L450.161 33.1454C450.143 33.1926 450.142 33.242 450.157 33.2898C450.173 33.3376 450.206 33.3827 450.253 33.4215C450.3 33.4603 450.36 33.492 450.429 33.5141C450.498 33.5362 450.573 33.5482 450.65 33.5491L476.125 33.5356C476.269 33.5359 476.411 33.5571 476.541 33.5978C476.67 33.6384 476.785 33.6974 476.876 33.7707C476.968 33.8439 477.034 33.9295 477.069 34.0215C477.105 34.1134 477.109 34.2095 477.082 34.3027L472.277 49.8459C472.173 50.1843 471.895 50.4885 471.491 50.7069C471.086 50.9253 470.579 51.0442 470.057 51.0436L444.948 51.0571C444.622 51.0571 444.419 51.1602 444.337 51.3666C442.654 56.1036 441.391 60.3022 440.55 63.9626C440.543 63.9786 440.543 63.9953 440.549 64.0114C440.556 64.0276 440.568 64.0427 440.586 64.0557C440.604 64.0687 440.626 64.0792 440.652 64.0864C440.677 64.0936 440.705 64.0973 440.733 64.0972C450.372 64.1869 459.821 64.1779 469.079 64.0703C469.281 64.0697 469.481 64.0989 469.664 64.1556C469.847 64.2123 470.009 64.2951 470.137 64.3981C470.266 64.5012 470.358 64.6218 470.408 64.7512C470.457 64.8807 470.463 65.0159 470.423 65.1469L465.882 79.8423C465.719 80.348 465.299 80.8015 464.691 81.1272C464.083 81.4529 463.325 81.6311 462.543 81.6321L405.666 81.659C403.861 81.659 403.141 81.0758 403.508 79.9095C410.757 57.2474 417.939 34.8006 425.053 12.5692C425.745 10.416 428.046 7.75143 427.435 4.65625" stroke="#34883B" stroke-width="2"/>
<path d="M514.23 82.897C485.599 84.8887 457.069 89.1412 428.641 95.6545C421.772 97.2335 415.859 98.8619 410.904 100.54C410.682 100.61 410.488 100.714 410.336 100.842C410.184 100.971 410.079 101.12 410.028 101.28C409.73 102.159 410.32 102.782 411.8 103.15C412.336 103.288 412.94 103.283 413.49 103.137C439.488 95.8878 466.81 90.8279 495.455 87.957C503.6 87.1316 512.153 86.7324 521.113 86.7593C527.243 86.7727 535.572 86.9207 539.461 90.3254C540.411 91.1688 541.552 91.3033 542.882 90.7292C543.031 90.6664 543.154 90.5811 543.249 90.4735C544.09 89.4328 543.934 88.4863 542.78 87.634C538.708 84.6599 531.682 83.5026 525.878 82.9105" stroke="#9ED6A4" stroke-width="2"/>
<path d="M589.594 82.4531C584.53 87.4323 579.425 92.4115 574.28 97.3907C572.922 98.7005 571.056 99.4676 568.68 99.6919C544.922 101.935 520.343 104.918 494.942 108.641C494.494 108.702 494.086 108.863 493.782 109.099C492.953 109.736 492.689 110.287 492.987 110.754C493.612 111.75 494.725 112.126 496.327 111.884C517.071 108.708 540.15 105.806 565.564 103.177C565.999 103.132 566.426 103.155 566.847 103.245C566.94 103.265 567.025 103.299 567.095 103.344C567.165 103.39 567.218 103.446 567.25 103.507C567.281 103.568 567.291 103.634 567.278 103.698C567.264 103.762 567.228 103.824 567.173 103.877C559.285 111.458 551.282 119.389 543.164 127.67C539.722 131.182 535.405 133.16 530.233 135.488C515.639 142.038 502.104 147.044 489.627 150.507C487.754 151.027 485.874 151.184 483.987 150.978C483.404 150.915 482.851 150.765 482.37 150.538C481.889 150.312 481.493 150.015 481.212 149.671C480.931 149.327 480.772 148.944 480.749 148.552C480.725 148.161 480.836 147.771 481.075 147.411C484.754 141.885 489.777 136.426 496.144 131.034C496.863 130.433 496.755 129.908 495.818 129.459L495.065 129.096C493.978 128.576 493.001 128.656 492.132 129.338C486.817 133.537 474.558 143.94 476.269 149.861C477.368 153.674 481.027 155.114 487.245 154.181C501.601 152.027 516.854 145.07 529.744 139.7C531.821 138.83 532.201 139.081 530.885 140.454C515.232 156.719 501.357 172.133 489.261 186.693C488.867 187.16 488.915 187.537 489.403 187.824" stroke="#9ED6A4" stroke-width="2"/>
<path d="M488.614 188.497L485.864 190.273C485.389 190.578 484.819 190.731 484.154 190.731L381.316 190.892" stroke="#9ED6A4" stroke-width="2"/>
<path d="M354.533 188.308C354.547 188.192 354.669 188.129 354.9 188.12C355.063 188.12 355.158 188.066 355.185 187.958L378.827 108.21" stroke="#9ED6A4" stroke-width="2"/>
<path d="M379.216 106.165C380.139 105.474 380.465 104.702 380.193 103.85C380.058 103.393 379.644 103.106 378.951 102.989C376.535 102.594 374.464 102.652 372.74 103.164" stroke="#9ED6A4" stroke-width="2"/>
<path d="M379.235 97.2022C380.05 97.6956 380.803 97.8257 381.496 97.5925C382.012 97.422 382.324 97.1484 382.432 96.7716C383.179 94.3852 383.77 92.0795 384.204 89.8545C384.713 87.2304 385.996 84.8888 387.075 82.3319" stroke="#9ED6A4" stroke-width="2"/>
<path d="M659.607 7.02485C658.588 6.99794 658.31 7.99378 658.772 10.0124" stroke="#8FB092" stroke-width="2"/>
<path d="M658.772 10.0122L655.615 19.3516C655.485 19.7472 655.15 20.101 654.668 20.3534C654.186 20.6058 653.586 20.7415 652.968 20.7377L634.946 20.657C634.624 20.6563 634.311 20.7308 634.059 20.868C633.807 21.0052 633.631 21.1967 633.561 21.4106L622.076 57.1801" stroke="#34883B" stroke-width="2"/>
<path d="M622.079 57.1803C619.948 56.3998 618.108 56.7138 616.56 58.1223C607.641 66.2505 598.654 74.3608 589.599 82.4531" stroke="#8FB092" stroke-width="2"/>
<path d="M589.596 82.4531C587.342 82.2736 585.53 81.9596 584.159 81.511C583.249 81.215 582.903 80.7395 583.12 80.0846L602.14 21.4107C602.171 21.3183 602.169 21.2225 602.136 21.1305C602.103 21.0385 602.04 20.9525 601.95 20.8789C601.86 20.8053 601.746 20.746 601.617 20.7053C601.488 20.6645 601.347 20.6435 601.203 20.6436L583.528 20.7782C583.256 20.7787 582.987 20.7401 582.741 20.6652C582.494 20.5904 582.276 20.481 582.101 20.3449C581.926 20.2088 581.799 20.0493 581.729 19.8777C581.659 19.706 581.647 19.5265 581.695 19.3517L584.301 9.87778" stroke="#34883B" stroke-width="2"/>
<path d="M415.28 5.98859C414.968 6.05139 414.676 6.21288 414.404 6.47305C414.201 6.65248 414.085 6.87677 414.058 7.14592C413.814 9.25423 413.393 11.2997 412.796 13.2824C405.926 35.5767 398.724 57.9203 391.19 80.3133C391.04 80.735 390.708 81.0759 390.192 81.3361C389.228 81.8205 388.189 82.1525 387.076 82.3319" stroke="#34883B" stroke-width="2"/>
<path d="M387.076 82.3319C386.601 81.9371 385.875 81.7263 384.897 81.6994" stroke="#8FB092" stroke-width="2"/>
<path d="M351.055 81.686C351.191 77.4066 350.77 73.1361 349.792 68.8746C349.181 66.1966 349.12 63.4513 348.408 60.7464C347.973 59.1046 347.702 57.095 347.593 54.7175C347.498 52.6362 347.002 50.6265 346.106 48.6887" stroke="#8FB092" stroke-width="2"/>
<path d="M345.042 45.0821C345.762 41.951 345.402 38.8603 343.963 35.81" stroke="#8FB092" stroke-width="2"/>
<path d="M343.292 34.7604C343.605 31.5486 343.537 28.7539 343.089 26.3765C342.722 24.3848 342.315 24.3803 341.867 26.363C341.134 29.6287 340.788 33.15 340.828 36.927" stroke="#8FB092" stroke-width="2"/>
<path d="M339.895 40.9103L327.88 79.5597" stroke="#8FB092" stroke-width="2"/>
<path d="M620.754 60.41L597.193 81.4303" stroke="#8FB092" stroke-width="2"/>
<path d="M664.192 91.1194L686.837 13.2151C687.461 11.0798 686.131 10.0122 682.845 10.0122H658.775" stroke="#9ED6A4" stroke-width="2"/>
<path d="M660.644 5.70597C660.495 5.00618 660.196 4.45892 659.748 4.06417C659.355 3.71428 658.615 3.53934 657.529 3.53934C633.92 3.56625 610.312 3.56625 586.703 3.53934" stroke="#8FB092" stroke-width="2"/>
<path d="M709.638 103.016L662.109 102.774C661.442 102.769 660.795 102.925 660.29 103.212C659.784 103.5 659.453 103.898 659.36 104.335C658.409 108.812 657.133 113.593 655.531 118.68C649.015 139.44 642.396 161.793 635.676 185.738C634.862 188.658 634.943 191.175 629.221 191.121C584.407 190.726 539.518 190.605 494.555 190.758C494.3 190.76 494.048 190.719 493.826 190.637C493.603 190.555 493.417 190.435 493.287 190.29C493.157 190.146 493.087 189.981 493.084 189.812C493.081 189.644 493.146 189.478 493.272 189.331C517.994 159.572 544.867 130.899 573.892 103.312C574.187 103.032 574.566 102.795 575.004 102.617C575.442 102.438 575.93 102.322 576.438 102.276C599.232 100.042 625.08 98.261 653.984 96.9332C655.993 96.8345 656.807 96.1482 656.427 94.8742C656.326 94.5375 656.043 94.2359 655.628 94.0237C655.214 93.8115 654.695 93.7027 654.167 93.7169C629.343 94.6051 605.477 96.3546 581.162 98.3866C579.357 98.5391 578.983 98.1264 580.042 97.1485L597.189 81.4304" stroke="#9ED6A4" stroke-width="2"/>
<path d="M597.193 81.4303L613.24 81.7129C613.622 81.72 613.996 81.6359 614.294 81.4756C614.593 81.3154 614.797 81.0894 614.869 80.8382L620.754 60.41" stroke="#34883B" stroke-width="2"/>
<path d="M620.755 60.4099C621.624 59.3692 622.065 58.2926 622.079 57.1802" stroke="#9ED6A4" stroke-width="2"/>
<path d="M415.665 4.93889C415.651 4.47237 415.332 4.09107 414.708 3.79501C414.246 3.5797 413.723 3.47653 413.139 3.4855C404.709 3.5483 396.556 3.53037 388.682 3.43168C388.097 3.42414 387.527 3.55229 387.072 3.79358C386.618 4.03486 386.308 4.37376 386.198 4.75049L372.636 49.671" stroke="#8FB092" stroke-width="2"/>
<path d="M372.006 50.5324C372.739 53.2687 372.725 55.7179 371.965 57.88C371.395 59.5129 370.96 59.4949 370.662 57.8262C367.621 41.3993 365.041 26.224 362.923 12.3001C362.516 9.61765 361.871 7.0159 360.989 4.49489C360.731 3.77717 360.045 3.4183 358.932 3.4183L322.766 3.49905C322.101 3.49905 321.72 3.71886 321.625 4.15846C321.259 5.78231 320.818 7.3927 320.302 8.98963C315.455 24.1426 310.595 39.6364 305.721 55.4712C304.255 60.2261 302.965 64.1467 301.852 67.2329C301.16 69.1348 300.528 71.0413 299.958 72.9522C299.388 74.8811 298.526 76.7562 297.372 78.5774" stroke="#8FB092" stroke-width="2"/>
<path d="M78.9919 1.76298C67.8189 1.67327 58.6484 3.02348 51.4803 5.81362C41.6242 9.65344 33.9063 16.0143 28.3267 24.8961C20.3033 37.6536 16.9093 49.7831 18.1447 61.2847C18.2262 62.1549 18.4434 63.0431 18.7964 63.9492C19.2987 65.2322 19.7603 66.5061 20.1811 67.7711C22.3193 74.1095 29.7318 79.6539 39.6082 81.4034C54.4603 84.023 67.6493 82.7491 79.1752 77.5815C83.6824 75.5629 87.4022 73.0284 90.3346 69.9781C93.267 66.9367 95.7582 63.7787 97.8081 60.5041C98.0005 60.1905 97.995 59.8388 97.7926 59.526C97.5903 59.2132 97.2078 58.9649 96.7288 58.8354L75.7541 53.3045C75.5537 53.2506 75.338 53.2263 75.1216 53.2332C74.9052 53.2401 74.6932 53.2781 74.5 53.3445C74.3068 53.4109 74.1369 53.5041 74.0019 53.618C73.8669 53.7318 73.77 53.8636 73.7177 54.0043C72.3194 57.7813 69.2444 61.0065 64.4929 63.6801C62.5651 64.7566 60.4676 65.3667 58.2004 65.5103C55.5531 65.6717 53.2792 65.3847 51.3785 64.649C49.3557 63.8685 48.1 62.6214 47.6112 60.9079C47.2175 59.4814 47.0682 58.0953 47.1632 56.7496C47.3669 54.085 47.8556 51.4922 48.6294 48.9712C49.4575 46.3067 50.3807 43.5345 51.3989 40.6546C53.8154 33.7914 57.0397 28.1662 61.0717 23.7791C64.0856 20.5225 68.6675 18.9973 74.8173 19.2037C78.157 19.3113 81.517 20.8454 82.0261 23.1063C82.3248 24.4251 82.4741 25.7933 82.4741 27.2108C82.4785 27.5789 82.6112 27.9413 82.862 28.27C83.1127 28.5988 83.4747 28.8849 83.9198 29.1062C84.365 29.3274 84.8813 29.4779 85.4288 29.546C85.9762 29.614 86.54 29.5978 87.0764 29.4985C92.6968 28.4578 98.6566 27.8567 104.956 27.6952C106.721 27.6504 107.719 27.0538 107.949 25.9054C109.986 16.0457 105.126 8.97611 93.3688 4.69669C92.1334 4.24811 90.2599 3.78606 87.7484 3.31056C85.807 2.94273 83.8996 2.50313 82.0261 1.99175" stroke="#8FB092" stroke-width="2"/>
<path d="M166.554 2.2743C172.256 2.73185 176.98 3.53032 180.727 4.6697C188.452 7.02025 193.285 11.0933 195.226 16.8889C196.679 21.2222 197.201 25.3132 196.794 29.162C195.776 38.5552 192.864 47.8228 188.058 56.9648C184.963 62.8771 180.802 68.0267 175.575 72.4138C169.927 77.1597 162.399 80.2729 152.991 81.7532C145.62 82.9284 138.411 83.0271 131.365 82.0492C124.441 81.0893 119.282 79.4879 115.888 77.245C111.449 74.3113 108.89 70.9425 108.211 67.1385C107.397 62.6617 107.254 57.7453 107.784 52.3893C108.313 46.9077 110.336 39.9862 113.852 31.6247C114.558 29.9739 115.366 28.3949 116.275 26.8877C117.198 25.3536 118.108 23.8195 119.004 22.2853C121 18.8582 124.075 15.4176 128.229 11.9636C133.971 7.21313 141.282 4.41401 150.161 3.25668C152.889 2.89782 155.578 2.49411 158.225 2.04553" stroke="#8FB092" stroke-width="2"/>
<path d="M266.072 50.5727L265.644 58.7816C265.631 59.0328 265.522 59.0463 265.318 58.822C265.047 58.517 264.877 58.1805 264.809 57.8127C262.719 46.6611 260.506 33.8946 258.171 19.5132C257.261 13.9508 256.365 9.12415 255.483 5.03313C255.377 4.52316 254.985 4.05791 254.386 3.7291C253.787 3.4003 253.023 3.23178 252.245 3.25675C241.14 3.61562 229.797 3.59318 218.217 3.18946C216.913 3.14461 216.126 3.54384 215.855 4.38716L191.275 79.5732" stroke="#8FB092" stroke-width="2"/>
<path d="M310.019 6.35193C309.815 6.39679 309.646 6.42818 309.51 6.44612C309.361 6.45509 309.272 6.50893 309.245 6.60762L285.094 81.6859" stroke="#8FB092" stroke-width="2"/>
<path d="M245.304 81.686C245.657 78.3486 245.338 75.0112 244.347 71.6737C243.913 70.1934 243.662 68.7535 243.594 67.354C243.431 63.6936 242.107 59.9794 241.639 56.5074C241.327 54.2017 241.042 51.887 240.784 49.5634C240.757 49.384 240.471 48.4778 239.928 46.845C239.657 46.0107 239.589 45.0552 239.725 43.9786C239.996 41.9151 239.453 39.2013 238.096 35.8369" stroke="#8FB092" stroke-width="2"/>
<path d="M237.323 34.7334C237.635 30.9743 237.567 28.1169 237.119 26.1611C236.78 24.6987 236.44 24.6942 236.101 26.1476C235.395 29.1531 234.988 32.7731 234.879 37.0077" stroke="#8FB092" stroke-width="2"/>
<path d="M233.738 41.8388L222.069 79.2501" stroke="#8FB092" stroke-width="2"/>
<path d="M310.507 4.5622L309.509 3.92971C309.007 3.6157 308.41 3.45869 307.717 3.45869L282.609 3.40487C282.083 3.40111 281.571 3.51866 281.163 3.73728C280.754 3.9559 280.473 4.2619 280.369 4.60257L266.644 48.9848" stroke="#8FB092" stroke-width="2"/>
<path d="M166.252 24.2232C167.664 21.2357 166.035 19.5715 161.365 19.2306C156.872 18.9076 153.247 20.3744 150.491 23.6311C146.703 28.09 143.954 32.8763 142.243 37.9901C141.062 41.5249 139.82 45.091 138.517 48.6886C137.553 51.3621 137.037 55.1347 136.969 60.0062C136.942 62.2132 138.028 63.7608 140.227 64.649C147.823 67.6769 154.706 60.5714 156.824 56.6688C158.385 53.8159 159.811 50.927 161.1 48.0023C164.196 40.9866 166.056 33.8183 166.68 26.4975" stroke="#8FB092" stroke-width="2"/>
<path d="M427.395 135.488C418.252 144.303 408.172 154.019 403.325 164.152C403.204 164.393 403.149 164.648 403.162 164.906C403.203 166.431 403.963 167.185 405.443 167.167C405.893 167.164 406.331 167.066 406.696 166.888C407.062 166.709 407.335 166.459 407.479 166.171C413.1 154.598 424.666 143.993 435.418 133.752C436.033 133.164 436.972 132.751 438.045 132.595C451.391 130.594 464.417 129.473 477.124 129.231C478.753 129.195 479.73 128.652 480.056 127.602C480.165 127.252 480.042 126.889 479.689 126.512C479.541 126.357 479.332 126.229 479.083 126.142C478.833 126.055 478.551 126.011 478.264 126.014C466.643 126.113 455.144 126.925 443.768 128.45C441.46 128.764 441.019 128.302 442.444 127.064L475.82 98.2251C475.9 98.1544 475.95 98.0707 475.963 97.9828C476.424 95.8745 475.182 95.3632 472.236 96.4487C471.968 96.5464 471.725 96.6837 471.524 96.8524C458.83 107.286 446.646 117.832 434.97 128.491C434.192 129.206 433.075 129.732 431.794 129.984L407.601 134.829C407.005 134.949 406.481 135.223 406.107 135.611C405.733 135.998 405.529 136.479 405.524 136.982C405.511 137.476 406.149 137.875 407.439 138.18C407.915 138.285 408.423 138.285 408.884 138.18L426.112 134.371C428.23 133.905 428.658 134.277 427.395 135.488Z" stroke="#9ED6A4" stroke-width="2"/>
<path d="M499.861 125.664C500.467 125.913 501.37 125.808 502.373 125.374C503.376 124.939 504.397 124.21 505.21 123.346C506.024 122.483 506.563 121.556 506.71 120.769C506.858 119.982 506.6 119.4 505.995 119.152C505.39 118.903 504.486 119.007 503.483 119.442C502.48 119.876 501.46 120.606 500.646 121.469C499.833 122.333 499.293 123.26 499.146 124.046C498.999 124.833 499.256 125.415 499.861 125.664Z" stroke="#9ED6A4" stroke-width="2"/>
<path d="M586.274 4.64284C586.328 6.46406 585.67 8.20902 584.298 9.87773L570.614 9.71625C556.875 1.62392 541.086 -0.138999 523.248 4.42751C521.279 4.92992 518.958 5.75532 516.283 6.90368C513.663 8.03409 511.382 8.92674 509.441 9.58167L488.425 9.2856L489.199 4.26603C489.214 4.17218 489.198 4.0774 489.153 3.98784C489.108 3.89827 489.036 3.81592 488.94 3.74613C488.844 3.67634 488.726 3.62066 488.596 3.58272C488.465 3.54477 488.324 3.5254 488.181 3.52588L427.884 3.86231C427.748 3.52139 427.734 3.21187 427.843 2.93375C427.927 2.74314 428.099 2.57572 428.334 2.45676C428.569 2.33781 428.854 2.27379 429.146 2.27436L489.199 2.28781C489.576 2.28771 489.937 2.38467 490.207 2.55808C490.477 2.73148 490.634 2.96765 490.645 3.21636L490.91 8.22249C490.92 8.43907 491.058 8.64445 491.294 8.79514C491.529 8.94584 491.844 9.03002 492.172 9.02991C498.77 9.07028 507.18 9.97194 513.045 7.38814C519.29 4.63388 523.859 3.08179 526.75 2.7319C530.687 2.24744 534.645 1.73158 538.622 1.18432C541.351 0.798542 543.944 1.01833 546.401 1.84371C547.012 2.05006 547.657 2.1622 548.336 2.18015C554.54 2.35061 559.115 3.13562 562.061 4.53518C564.817 5.84502 567.593 7.18627 570.39 8.55892C571.069 8.89087 571.829 9.05683 572.671 9.05683L583.504 8.96264C583.641 8.96089 583.775 8.94139 583.9 8.90527C584.025 8.86915 584.138 8.81713 584.233 8.75215C584.327 8.68716 584.402 8.61049 584.451 8.52654C584.501 8.44258 584.525 8.35299 584.522 8.26286L584.502 6.16352C584.502 5.70597 584.787 5.34711 585.357 5.08693L586.274 4.64284Z" fill="#F9FEFB"/>
<path d="M78.9894 1.76291C67.8164 1.67319 58.6459 3.0234 51.4778 5.81355C41.6217 9.65337 33.9038 16.0142 28.3241 24.896C20.3008 37.6536 16.9068 49.7831 18.1422 61.2846C18.2237 62.1548 18.4409 63.043 18.7938 63.9491C19.2962 65.2321 19.7577 66.506 20.1786 67.771C22.3168 74.1094 29.7292 79.6538 39.6057 81.4033C54.4577 84.023 67.6467 82.749 79.1727 77.5814C83.6799 75.5628 87.3997 73.0283 90.3321 69.978C93.2645 66.9367 95.7556 63.7787 97.8056 60.5041C97.998 60.1905 97.9924 59.8387 97.7901 59.5259C97.5878 59.2131 97.2053 58.9648 96.7263 58.8354L75.7515 53.3044C75.5512 53.2506 75.3354 53.2263 75.119 53.2332C74.9026 53.2401 74.6906 53.278 74.4974 53.3444C74.3042 53.4108 74.1344 53.5041 73.9994 53.6179C73.8644 53.7318 73.7675 53.8635 73.7152 54.0042C72.3168 57.7812 69.2419 61.0065 64.4903 63.68C62.5626 64.7566 60.4651 65.3666 58.1979 65.5102C55.5506 65.6717 53.2766 65.3846 51.376 64.6489C49.3532 63.8684 48.0974 62.6213 47.6087 60.9078C47.215 59.4813 47.0657 58.0952 47.1607 56.7495C47.3643 54.0849 47.8531 51.4922 48.6269 48.9712C49.455 46.3066 50.3782 43.5344 51.3964 40.6545C53.8129 33.7913 57.0372 28.1662 61.0692 23.7791C64.0831 20.5224 68.6649 18.9972 74.8148 19.2036C78.1545 19.3112 81.5145 20.8454 82.0236 23.1062C82.3223 24.425 82.4716 25.7932 82.4716 27.2107C82.476 27.5788 82.6087 27.9413 82.8595 28.27C83.1102 28.5987 83.4722 28.8848 83.9173 29.1061C84.3625 29.3274 84.8788 29.4779 85.4262 29.5459C85.9737 29.6139 86.5375 29.5977 87.0739 29.4984C92.6943 28.4577 98.6541 27.8566 104.953 27.6952C106.718 27.6503 107.716 27.0537 107.947 25.9053C109.983 16.0456 105.123 8.97604 93.3663 4.69661C92.1309 4.24803 90.2574 3.78598 87.7459 3.31049C85.8045 2.94266 83.8971 2.50306 82.0236 1.99168C101.96 3.14901 111.877 14.1167 109.556 26.4167C109.497 26.7266 109.293 27.0158 108.975 27.243C108.657 27.4703 108.24 27.6238 107.784 27.6817C102.028 28.4443 96.0136 29.0274 89.7415 29.4311C87.4811 29.5657 85.6688 30.2386 83.4695 30.4674C83.2379 30.4913 83.0011 30.4811 82.7763 30.4374C82.5514 30.3938 82.3439 30.3177 82.1687 30.2148C81.9935 30.1119 81.8549 29.9847 81.763 29.8422C81.671 29.6997 81.6279 29.5456 81.6367 29.3908C81.8607 26.1341 82.1254 21.0472 75.8737 19.9572C67.0358 18.4231 61.0488 24.0348 58.1572 28.9198C52.5639 38.4206 49.3464 48.3162 48.5047 58.6066C48.2603 61.4685 49.7333 63.3839 52.9237 64.3528C58.9106 66.1696 65.59 62.9667 68.5631 59.6024C70.5995 57.2878 72.3915 54.9911 73.9392 52.7123C74.0551 52.5457 74.2636 52.4151 74.5214 52.3474C74.7793 52.2797 75.0667 52.2803 75.3239 52.3489L97.3169 58.1625C97.7112 58.267 98.0698 58.4227 98.3715 58.6204C98.6732 58.8181 98.9118 59.0539 99.0732 59.3136C99.2346 59.5733 99.3155 59.8518 99.3111 60.1326C99.3068 60.4133 99.2172 60.6907 99.0478 60.9482C91.3503 72.656 81.2905 81.4571 60.6008 82.749C51.9055 83.2873 41.1534 83.2738 33.354 80.4613C21.767 76.276 19.364 69.7896 17.3276 61.8498C16.6896 59.3826 16.5063 56.9244 16.7778 54.4752C18.0811 43.1082 21.8688 32.7237 28.1408 23.3215C34.603 13.6592 44.1401 7.01575 56.7521 3.39125C63.3364 1.50723 70.7488 0.96444 78.9894 1.76291Z" fill="#F9FEFB"/>
<path d="M78.99 1.76293C79.7502 1.61042 80.7616 1.68667 82.0242 1.99171C83.8977 2.50308 85.8051 2.94268 87.7464 3.31052C90.258 3.78601 92.1314 4.24806 93.3668 4.69664C105.124 8.97606 109.984 16.0456 107.947 25.9053C107.717 27.0537 106.719 27.6503 104.954 27.6952C98.6547 27.8567 92.6948 28.4578 87.0744 29.4984C86.538 29.5977 85.9742 29.614 85.4268 29.5459C84.8794 29.4779 84.363 29.3274 83.9179 29.1061C83.4727 28.8848 83.1107 28.5987 82.86 28.27C82.6093 27.9413 82.4766 27.5788 82.4722 27.2107C82.4722 25.7932 82.3228 24.425 82.0242 23.1062C81.5151 20.8454 78.1551 19.3113 74.8154 19.2036C68.6655 18.9973 64.0836 20.5224 61.0698 23.7791C57.0377 28.1662 53.8135 33.7913 51.3969 40.6545C50.3788 43.5344 49.4556 46.3066 48.6275 48.9712C47.8536 51.4922 47.3649 54.085 47.1613 56.7495C47.0662 58.0952 47.2156 59.4813 47.6093 60.9078C48.098 62.6214 49.3538 63.8684 51.3766 64.6489C53.2772 65.3846 55.5512 65.6717 58.1985 65.5102C60.4656 65.3667 62.5631 64.7566 64.4909 63.68C69.2425 61.0065 72.3174 57.7812 73.7157 54.0042C73.768 53.8635 73.865 53.7318 74 53.6179C74.1349 53.5041 74.3048 53.4108 74.498 53.3444C74.6912 53.278 74.9032 53.2401 75.1196 53.2332C75.336 53.2263 75.5517 53.2506 75.7521 53.3044L96.7269 58.8354C97.2058 58.9648 97.5884 59.2132 97.7907 59.526C97.993 59.8387 97.9986 60.1905 97.8062 60.5041C95.7562 63.7787 93.265 66.9367 90.3326 69.978C87.4002 73.0284 83.6804 75.5628 79.1732 77.5814C67.6473 82.749 54.4583 84.023 39.6063 81.4033C29.7298 79.6538 22.3174 74.1094 20.1792 67.771C19.7583 66.5061 19.2967 65.2321 18.7944 63.9492C18.4414 63.043 18.2242 62.1548 18.1428 61.2846C16.9074 49.7831 20.3013 37.6536 28.3247 24.8961C33.9044 16.0142 41.6223 9.6534 51.4784 5.81358C58.6465 3.02343 67.817 1.67322 78.99 1.76293Z" fill="#256229"/>
<path d="M166.557 2.27431C172.258 2.73185 176.983 3.53032 180.73 4.66971C188.455 7.02025 193.288 11.0933 195.229 16.8889C196.682 21.2222 197.204 25.3132 196.797 29.162C195.779 38.5552 192.867 47.8228 188.061 56.9648C184.965 62.8771 180.805 68.0267 175.578 72.4138C169.93 77.1598 162.402 80.2729 152.994 81.7532C145.623 82.9285 138.414 83.0271 131.368 82.0492C124.444 81.0893 119.285 79.4879 115.891 77.245C111.452 74.3113 108.893 70.9425 108.214 67.1385C107.4 62.6617 107.257 57.7453 107.786 52.3893C108.316 46.9077 110.339 39.9862 113.855 31.6247C114.561 29.9739 115.369 28.3949 116.278 26.8877C117.201 25.3536 118.111 23.8195 119.007 22.2853C121.003 18.8582 124.078 15.4176 128.232 11.9636C133.974 7.21314 141.285 4.41401 150.164 3.25668C152.892 2.89782 155.58 2.49411 158.228 2.04553C161.214 1.65976 163.991 1.73601 166.557 2.27431ZM166.679 26.4975L166.251 24.2232C167.663 21.2357 166.034 19.5714 161.364 19.2305C156.87 18.9075 153.245 20.3744 150.489 23.6311C146.702 28.0899 143.953 32.8762 142.242 37.99C141.061 41.5248 139.819 45.091 138.516 48.6886C137.552 51.3621 137.036 55.1346 136.968 60.0062C136.941 62.2132 138.027 63.7607 140.226 64.6489C147.822 67.6768 154.705 60.5714 156.823 56.6688C158.384 53.8158 159.809 50.927 161.099 48.0022C164.194 40.9865 166.054 33.8182 166.679 26.4975Z" fill="#256229"/>
<path d="M158.229 2.04553C155.582 2.49411 152.894 2.89782 150.165 3.25668C141.286 4.41401 133.976 7.21313 128.233 11.9636C124.079 15.4176 121.004 18.8582 119.008 22.2853C118.112 23.8195 117.203 25.3536 116.279 26.8877C115.37 28.3949 114.562 29.9739 113.856 31.6247C110.34 39.9862 108.317 46.9077 107.788 52.3893C107.258 57.7453 107.401 62.6617 108.215 67.1385C108.894 70.9425 111.453 74.3113 115.893 77.245C119.287 79.4879 124.445 81.0893 131.369 82.0492C138.415 83.0271 145.624 82.9284 152.995 81.7532C162.404 80.2729 169.931 77.1597 175.579 72.4138C180.806 68.0267 184.967 62.8771 188.062 56.9648C192.868 47.8228 195.78 38.5552 196.798 29.162C197.205 25.3132 196.683 21.2222 195.23 16.8889C193.289 11.0933 188.456 7.02025 180.731 4.6697C176.984 3.53032 172.26 2.73185 166.558 2.2743C178.301 2.17562 186.881 4.91192 192.298 10.4833C199.303 17.6829 198.203 28.7583 196.432 36.8327C194.735 44.4405 191.999 51.7613 188.225 58.795C182.788 68.9014 173.237 79.0483 156.742 81.7397C148.936 83.0227 140.607 83.3142 131.756 82.6144C103.41 80.394 103.858 60.7732 107.503 46.9795C110.516 35.6215 114.895 24.1693 123.977 14.5474C131.742 6.32046 143.16 2.15319 158.229 2.04553Z" fill="#F9FEFB"/>
<path d="M266.071 50.5726L265.643 58.7816C265.63 59.0328 265.521 59.0462 265.317 58.8219C265.046 58.5169 264.876 58.1805 264.808 57.8126C262.718 46.661 260.505 33.8945 258.17 19.5131C257.26 13.9508 256.364 9.12411 255.482 5.03309C255.376 4.52312 254.984 4.05787 254.385 3.72906C253.786 3.40026 253.022 3.23174 252.244 3.25672C241.139 3.61558 229.796 3.59314 218.216 3.18942C216.912 3.14457 216.125 3.5438 215.854 4.38712L191.274 79.5731L215.345 3.91613C215.494 3.45441 215.879 3.04065 216.435 2.7442C216.991 2.44775 217.685 2.2866 218.399 2.28779L252.549 2.31471C254.654 2.31471 255.841 3.00103 256.113 4.37367C258.041 13.7579 259.534 22.5814 260.593 30.8442C260.851 32.8628 261.292 34.7782 261.917 36.5905C263.098 39.9414 261.856 43.0904 263.525 46.4278C264.231 47.8184 265.08 49.2 266.071 50.5726Z" fill="#F9FEFB"/>
<path d="M310.508 4.56197L309.51 3.92948C309.007 3.61547 308.41 3.45846 307.718 3.45846L282.609 3.40464C282.083 3.40088 281.572 3.51843 281.163 3.73705C280.754 3.95567 280.473 4.26167 280.369 4.60234L266.644 48.9845C266.467 47.0198 266.596 45.3466 267.031 43.965C271.294 30.4538 275.455 17.2253 279.514 4.27936C279.853 3.18483 280.865 2.59272 282.548 2.50301C291.372 2.03649 300.332 2.17554 309.428 2.92018C309.806 2.95077 310.157 3.06265 310.426 3.23813C310.695 3.41361 310.867 3.64267 310.915 3.88911C310.928 3.94294 310.793 4.16722 310.508 4.56197Z" fill="#F9FEFB"/>
<path d="M372.005 50.5322C372.738 53.2685 372.724 55.7177 371.964 57.8798C371.394 59.5127 370.959 59.4947 370.661 57.826C367.62 41.3991 365.04 26.2238 362.922 12.2999C362.515 9.61745 361.87 7.0157 360.988 4.4947C360.73 3.77697 360.044 3.41811 358.931 3.41811L322.765 3.49885C322.1 3.49885 321.719 3.71866 321.624 4.15826C321.258 5.78211 320.817 7.3925 320.301 8.98943C315.454 24.1424 310.594 39.6362 305.72 55.471C304.254 60.2259 302.964 64.1465 301.851 67.2327C301.159 69.1346 300.527 71.0411 299.957 72.952C299.387 74.8809 298.525 76.756 297.371 78.5772L321.482 3.35084C321.58 3.05341 321.827 2.78704 322.182 2.59606C322.538 2.40508 322.981 2.301 323.437 2.30115L359.155 2.32807C360.825 2.32807 361.762 2.87086 361.965 3.95641C363.73 12.8921 365.257 21.8771 366.547 30.9114C366.574 31.028 367.077 33.1991 368.054 37.4247C368.57 39.6586 368.699 41.9464 368.441 44.288C368.278 45.7862 369.466 47.8676 372.005 50.5322Z" fill="#F9FEFB"/>
<path d="M415.663 4.93893C415.649 4.4724 415.33 4.09111 414.706 3.79505C414.244 3.57973 413.721 3.47656 413.138 3.48553C404.707 3.54833 396.555 3.5304 388.681 3.43171C388.095 3.42417 387.525 3.55233 387.071 3.79361C386.616 4.03489 386.307 4.37379 386.196 4.75052L372.634 49.671C372.349 47.5986 372.437 45.8088 372.899 44.3016C377.121 30.6738 381.282 17.36 385.382 4.36027C385.545 3.83665 385.968 3.36409 386.584 3.0178C387.2 2.67152 387.974 2.4714 388.783 2.44931C397.58 2.21605 405.895 2.19364 413.728 2.38204C414.669 2.40484 415.562 2.62929 416.246 3.01458C416.93 3.39987 417.359 3.92038 417.455 4.48138C417.455 4.52624 416.857 4.67875 415.663 4.93893Z" fill="#F9FEFB"/>
<path d="M570.618 9.71627C574.419 14.9826 576.17 20.4911 575.872 26.2418C575.845 26.9237 575.315 27.3139 574.283 27.4126L550.336 29.5927C550.101 29.6148 549.862 29.5996 549.639 29.5483C549.415 29.4971 549.213 29.4113 549.05 29.2981C548.887 29.1849 548.766 29.0476 548.7 28.8975C548.633 28.7474 548.621 28.589 548.666 28.4354C549.467 25.5824 549.053 23.1601 547.424 21.1684C546.989 20.6391 546.344 20.2668 545.489 20.0515C532.13 16.8352 525.247 25.7977 521.969 32.6879C519.545 37.7613 507.816 62.9803 519.871 64.9585C530.888 66.7887 537.69 59.8986 540.113 53.8563C540.186 53.6813 540.314 53.5184 540.487 53.3781C540.661 53.2378 540.877 53.1233 541.121 53.042C541.365 52.9608 541.632 52.9146 541.904 52.9064C542.176 52.8983 542.447 52.9285 542.699 52.995L565.079 58.8085C565.235 58.8484 565.377 58.9086 565.496 58.9855C565.616 59.0625 565.711 59.1546 565.776 59.2563C565.84 59.3581 565.873 59.4674 565.873 59.5778C565.872 59.6881 565.837 59.7972 565.771 59.8986C562.819 64.4741 559.072 69.5879 554.184 73.1137C546.84 78.4069 537.405 81.6725 525.879 82.9106L514.23 82.8971C470.265 78.9003 485.11 39.2147 496.493 22.4469C498.761 19.0915 503.078 14.8031 509.445 9.58169C511.386 8.92677 513.667 8.03411 516.287 6.9037C518.962 5.75534 521.283 4.92994 523.252 4.42754C541.09 -0.138978 556.879 1.62394 570.618 9.71627Z" fill="#256229"/>
<path d="M660.643 5.70597C660.493 5.00619 660.195 4.45893 659.747 4.06418C659.353 3.71429 658.613 3.53934 657.527 3.53934C633.919 3.56626 610.31 3.56626 586.702 3.53934C586.525 3.27917 586.478 3.03693 586.559 2.81264C586.681 2.45378 587.021 2.27435 587.577 2.27435L659.706 2.2878C659.98 2.28794 660.25 2.32654 660.496 2.40091C660.742 2.47527 660.959 2.58363 661.132 2.71845C662.326 3.6784 662.163 4.67424 660.643 5.70597Z" fill="#F9FEFB"/>
<path d="M266.07 50.5726C266.654 50.3214 266.844 49.7921 266.64 48.9846L280.365 4.60242C280.469 4.26175 280.75 3.95575 281.159 3.73713C281.568 3.51852 282.079 3.40097 282.605 3.40472L307.714 3.45855C308.406 3.45855 309.004 3.61556 309.506 3.92956L310.504 4.56205L310.015 6.35188C309.811 6.39674 309.642 6.42813 309.506 6.44607C309.357 6.45504 309.268 6.50888 309.241 6.60757L285.09 81.6859H245.299C245.652 78.3485 245.333 75.0111 244.342 71.6737C243.907 70.1934 243.656 68.7534 243.588 67.3539C243.425 63.6935 242.102 59.9793 241.633 56.5073C241.321 54.2016 241.036 51.8869 240.778 49.5633C240.751 49.3839 240.466 48.4777 239.923 46.8449C239.651 46.0106 239.583 45.0551 239.719 43.9785C239.99 41.9151 239.447 39.2012 238.09 35.8368L237.316 34.7333C237.628 30.9743 237.56 28.1168 237.112 26.161C236.773 24.6987 236.434 24.6942 236.094 26.1476C235.388 29.153 234.981 32.7731 234.872 37.0076L233.732 41.8388L222.063 79.2501C222.403 79.8692 222.308 80.4837 221.778 81.0938C221.466 81.4706 220.977 81.659 220.312 81.659L193.045 81.6321C192.393 81.6321 191.918 81.4437 191.62 81.0669C191.307 80.6721 191.192 80.1742 191.273 79.5731L215.853 4.3871C216.124 3.54378 216.911 3.14455 218.215 3.1894C229.795 3.59312 241.138 3.61556 252.243 3.25669C253.021 3.23172 253.785 3.40024 254.384 3.72904C254.983 4.05785 255.375 4.5231 255.481 5.03307C256.363 9.12409 257.259 13.9508 258.169 19.5131C260.504 33.8945 262.717 46.661 264.807 57.8126C264.875 58.1805 265.045 58.5169 265.316 58.8219C265.52 59.0462 265.629 59.0328 265.642 58.7815L266.07 50.5726Z" fill="#256229"/>
<path d="M372.007 50.5323L372.638 49.671L386.201 4.75052C386.311 4.37379 386.62 4.03489 387.075 3.79361C387.53 3.55233 388.1 3.42417 388.685 3.43171C396.559 3.5304 404.711 3.54833 413.142 3.48553C413.726 3.47656 414.248 3.57973 414.71 3.79505C415.335 4.09111 415.654 4.47241 415.667 4.93893L415.28 5.98859C414.968 6.0514 414.676 6.21288 414.405 6.47306C414.201 6.65249 414.086 6.87678 414.058 7.14592C413.814 9.25424 413.393 11.2997 412.796 13.2825C405.926 35.5767 398.724 57.9204 391.19 80.3133C391.04 80.735 390.708 81.0759 390.192 81.3361C389.228 81.8205 388.189 82.1525 387.076 82.3319C386.601 81.9372 385.875 81.7263 384.897 81.6994L351.053 81.686C351.188 77.4065 350.767 73.1361 349.79 68.8746C349.179 66.1966 349.118 63.4513 348.405 60.7464C347.971 59.1046 347.699 57.095 347.591 54.7175C347.496 52.6361 347 50.6265 346.104 48.6886C345.371 47.4775 345.018 46.2753 345.045 45.0821C345.765 41.951 345.405 38.8603 343.966 35.81C343.667 35.801 343.443 35.4511 343.294 34.7603C343.606 31.5485 343.538 28.7539 343.09 26.3764C342.724 24.3847 342.316 24.3803 341.868 26.363C341.135 29.6286 340.789 33.1499 340.83 36.927L339.893 40.9103L327.879 79.5597C328.231 80.0801 328.17 80.6004 327.695 81.1208C327.356 81.4976 326.86 81.686 326.209 81.686L298.799 81.6187C298.542 81.616 298.289 81.5781 298.057 81.5075C297.824 81.437 297.617 81.3353 297.45 81.2094C297.283 81.0834 297.158 80.936 297.085 80.7769C297.012 80.6178 296.993 80.4506 297.027 80.2864L297.373 78.5773C298.527 76.7561 299.389 74.8811 299.96 72.9522C300.53 71.0412 301.161 69.1348 301.854 67.2328C302.967 64.1466 304.256 60.2261 305.723 55.4711C310.596 39.6364 315.457 24.1425 320.303 8.98957C320.819 7.39264 321.26 5.78225 321.627 4.1584C321.722 3.71879 322.102 3.49898 322.767 3.49898L358.933 3.41824C360.047 3.41824 360.732 3.77711 360.99 4.49483C361.873 7.01584 362.517 9.61759 362.925 12.3001C365.043 26.2239 367.622 41.3993 370.663 57.8262C370.962 59.4949 371.396 59.5128 371.966 57.88C372.727 55.7178 372.74 53.2686 372.007 50.5323Z" fill="#256229"/>
<path d="M488.428 9.28558L485.231 19.3247C485.105 19.7201 484.777 20.0748 484.303 20.3296C483.828 20.5844 483.236 20.7237 482.624 20.7243L454.604 20.7108C454.45 20.7096 454.3 20.7454 454.181 20.8119C454.062 20.8784 453.981 20.9713 453.952 21.0742L450.164 33.1454C450.146 33.1926 450.144 33.242 450.16 33.2898C450.176 33.3376 450.209 33.3827 450.256 33.4215C450.303 33.4604 450.363 33.492 450.432 33.5141C450.501 33.5362 450.576 33.5482 450.653 33.5491L476.128 33.5357C476.272 33.536 476.414 33.5572 476.543 33.5978C476.673 33.6384 476.788 33.6974 476.879 33.7707C476.971 33.8439 477.037 33.9295 477.072 34.0215C477.108 34.1135 477.112 34.2095 477.085 34.3027L472.279 49.8459C472.176 50.1843 471.898 50.4886 471.494 50.7069C471.089 50.9253 470.582 51.0443 470.06 51.0436L444.951 51.0571C444.625 51.0571 444.422 51.1603 444.34 51.3666C442.657 56.1036 441.394 60.3023 440.553 63.9627C440.546 63.9786 440.546 63.9953 440.552 64.0115C440.559 64.0276 440.571 64.0428 440.589 64.0558C440.607 64.0688 440.629 64.0793 440.655 64.0864C440.68 64.0936 440.708 64.0973 440.736 64.0972C450.375 64.1869 459.824 64.178 469.082 64.0703C469.284 64.0698 469.484 64.0989 469.667 64.1556C469.85 64.2123 470.012 64.2951 470.14 64.3982C470.269 64.5012 470.361 64.6218 470.411 64.7513C470.46 64.8808 470.466 65.0159 470.426 65.1469L465.885 79.8423C465.722 80.348 465.302 80.8016 464.694 81.1273C464.086 81.4529 463.328 81.6311 462.546 81.6321L405.669 81.659C403.864 81.659 403.144 81.0759 403.511 79.9096C410.76 57.2475 417.942 34.8007 425.056 12.5692C425.748 10.416 428.049 7.75145 427.438 4.65627C427.669 4.40506 427.818 4.14041 427.886 3.86229L488.184 3.52586C488.326 3.52538 488.468 3.54475 488.598 3.5827C488.729 3.62064 488.846 3.67631 488.942 3.74611C489.038 3.8159 489.111 3.89825 489.156 3.98782C489.2 4.07738 489.216 4.17216 489.202 4.26601L488.428 9.28558Z" fill="#256229"/>
<path d="M586.703 3.53934C610.312 3.56625 633.92 3.56625 657.529 3.53934C658.615 3.53934 659.355 3.71428 659.749 4.06417C660.197 4.45892 660.495 5.00618 660.645 5.70597L659.606 7.02478C658.588 6.99786 658.309 7.9937 658.771 10.0123L655.615 19.3517C655.484 19.7473 655.149 20.101 654.667 20.3534C654.185 20.6059 653.585 20.7416 652.967 20.7378L634.945 20.657C634.623 20.6564 634.31 20.7309 634.058 20.8681C633.806 21.0052 633.63 21.1968 633.561 21.4106L622.075 57.1802C619.944 56.3997 618.104 56.7137 616.557 58.1222C607.637 66.2504 598.65 74.3607 589.595 82.453C587.341 82.2736 585.529 81.9596 584.158 81.511C583.248 81.2149 582.902 80.7394 583.119 80.0845L602.139 21.4106C602.17 21.3182 602.168 21.2225 602.135 21.1305C602.102 21.0384 602.039 20.9524 601.949 20.8788C601.859 20.8053 601.745 20.7459 601.616 20.7052C601.487 20.6645 601.346 20.6434 601.202 20.6436L583.527 20.7782C583.255 20.7786 582.986 20.7401 582.74 20.6652C582.493 20.5903 582.275 20.4809 582.1 20.3448C581.925 20.2087 581.798 20.0492 581.728 19.8776C581.658 19.706 581.646 19.5264 581.694 19.3517L584.3 9.87772C585.672 8.20901 586.33 6.46405 586.276 4.64283C586.534 4.32882 586.676 3.961 586.703 3.53934Z" fill="#256229"/>
<path d="M427.438 4.65625C428.049 7.75143 425.747 10.416 425.055 12.5692C417.941 34.8006 410.76 57.2474 403.51 79.9096C403.144 81.0759 403.863 81.659 405.669 81.659L462.545 81.6321C463.327 81.6311 464.086 81.4529 464.693 81.1272C465.301 80.8015 465.722 80.348 465.885 79.8423L470.426 65.1469C470.465 65.0159 470.46 64.8807 470.41 64.7512C470.361 64.6218 470.268 64.5012 470.14 64.3981C470.011 64.2951 469.849 64.2123 469.667 64.1556C469.484 64.0989 469.284 64.0697 469.082 64.0703C459.823 64.178 450.374 64.1869 440.735 64.0972C440.707 64.0973 440.679 64.0936 440.654 64.0864C440.629 64.0792 440.606 64.0687 440.588 64.0557C440.571 64.0427 440.558 64.0276 440.552 64.0114C440.546 63.9953 440.546 63.9786 440.552 63.9626C441.394 60.3022 442.656 56.1036 444.34 51.3666C444.421 51.1602 444.625 51.0571 444.951 51.0571L470.059 51.0436C470.582 51.0442 471.088 50.9253 471.493 50.7069C471.898 50.4885 472.175 50.1843 472.279 49.8459L477.085 34.3027C477.112 34.2095 477.107 34.1135 477.072 34.0215C477.036 33.9295 476.97 33.8439 476.879 33.7707C476.787 33.6974 476.673 33.6384 476.543 33.5978C476.413 33.5571 476.271 33.5359 476.128 33.5356L450.652 33.5491C450.576 33.5482 450.5 33.5362 450.431 33.5141C450.362 33.492 450.302 33.4603 450.255 33.4215C450.208 33.3827 450.176 33.3376 450.16 33.2898C450.144 33.242 450.145 33.1926 450.164 33.1454L453.951 21.0742C453.98 20.9713 454.061 20.8783 454.181 20.8119C454.3 20.7454 454.449 20.7096 454.603 20.7108L482.624 20.7243C483.235 20.7237 483.828 20.5844 484.302 20.3296C484.777 20.0748 485.104 19.7201 485.23 19.3247L488.427 9.28557L509.443 9.58163C503.076 14.8031 498.759 19.0915 496.491 22.4468C485.108 39.2146 470.263 78.9002 514.228 82.8971C485.597 84.8887 457.067 89.1413 428.639 95.6546C421.77 97.2336 415.857 98.8619 410.902 100.54C410.68 100.61 410.486 100.714 410.334 100.842C410.182 100.971 410.077 101.12 410.027 101.28C409.728 102.159 410.318 102.782 411.798 103.15C412.334 103.288 412.939 103.283 413.488 103.137C439.486 95.8879 466.808 90.8279 495.453 87.957C503.598 87.1316 512.151 86.7324 521.111 86.7593C527.241 86.7728 535.57 86.9208 539.459 90.3255C540.41 91.1688 541.55 91.3034 542.88 90.7292C543.03 90.6664 543.152 90.5812 543.247 90.4735C544.089 89.4328 543.932 88.4863 542.779 87.634C538.706 84.66 531.68 83.5026 525.877 82.9105C537.403 81.6725 546.838 78.4068 554.182 73.1136C559.07 69.5878 562.817 64.474 565.769 59.8985C565.835 59.7972 565.87 59.688 565.871 59.5777C565.871 59.4673 565.838 59.358 565.774 59.2562C565.709 59.1545 565.614 59.0624 565.494 58.9855C565.375 58.9085 565.233 58.8483 565.077 58.8085L542.697 52.9949C542.445 52.9285 542.174 52.8983 541.902 52.9064C541.63 52.9145 541.363 52.9607 541.119 53.042C540.875 53.1232 540.659 53.2377 540.485 53.378C540.312 53.5183 540.184 53.6812 540.111 53.8562C537.688 59.8985 530.886 66.7887 519.869 64.9585C507.814 62.9803 519.543 37.7612 521.967 32.6878C525.245 25.7977 532.128 16.8351 545.487 20.0514C546.342 20.2667 546.987 20.6391 547.422 21.1684C549.051 23.1601 549.465 25.5824 548.664 28.4353C548.619 28.589 548.631 28.7474 548.698 28.8974C548.764 29.0475 548.885 29.1848 549.048 29.298C549.211 29.4112 549.413 29.497 549.637 29.5483C549.86 29.5995 550.099 29.6147 550.333 29.5927L574.281 27.4126C575.313 27.3139 575.843 26.9236 575.87 26.2418C576.168 20.491 574.417 14.9825 570.616 9.71621L584.3 9.87769L581.694 19.3517C581.646 19.5264 581.658 19.7059 581.728 19.8776C581.798 20.0492 581.925 20.2087 582.1 20.3448C582.275 20.4809 582.493 20.5903 582.74 20.6652C582.986 20.74 583.255 20.7786 583.527 20.7781L601.202 20.6435C601.346 20.6434 601.487 20.6644 601.616 20.7052C601.745 20.7459 601.859 20.8052 601.949 20.8788C602.039 20.9524 602.102 21.0384 602.135 21.1304C602.168 21.2225 602.17 21.3182 602.139 21.4106L583.119 80.0845C582.902 80.7394 583.248 81.2149 584.158 81.511C585.529 81.9595 587.341 82.2736 589.595 82.453C584.531 87.4322 579.427 92.4114 574.281 97.3906C572.924 98.7004 571.057 99.4675 568.681 99.6918C544.924 101.935 520.344 104.918 494.944 108.641C494.496 108.702 494.087 108.863 493.783 109.098C492.955 109.735 492.69 110.287 492.989 110.754C493.613 111.75 494.727 112.126 496.329 111.884C517.073 108.708 540.152 105.806 565.566 103.177C566 103.132 566.428 103.155 566.849 103.245C566.942 103.265 567.027 103.299 567.097 103.344C567.167 103.39 567.22 103.445 567.251 103.507C567.283 103.568 567.292 103.634 567.279 103.698C567.266 103.762 567.23 103.824 567.174 103.877C559.287 111.458 551.284 119.389 543.165 127.67C539.724 131.182 535.407 133.16 530.234 135.488C515.64 142.037 502.105 147.044 489.629 150.507C487.755 151.027 485.875 151.184 483.988 150.978C483.405 150.915 482.852 150.765 482.372 150.538C481.891 150.312 481.495 150.015 481.213 149.671C480.932 149.326 480.774 148.944 480.75 148.552C480.726 148.161 480.838 147.77 481.076 147.411C484.755 141.885 489.778 136.426 496.145 131.034C496.865 130.433 496.756 129.908 495.819 129.459L495.066 129.096C493.98 128.576 493.002 128.656 492.134 129.338C486.819 133.537 474.56 143.939 476.27 149.861C477.37 153.674 481.029 155.113 487.246 154.18C501.603 152.027 516.855 145.07 529.746 139.7C531.823 138.83 532.203 139.081 530.886 140.454C515.233 156.719 501.358 172.132 489.262 186.693C488.869 187.16 488.916 187.537 489.405 187.824C488.875 188.111 488.611 188.335 488.611 188.497L485.862 190.273C485.386 190.578 484.816 190.73 484.151 190.73L381.314 190.892C370.697 191.385 363.067 191.533 358.425 191.336C354.813 191.175 353.517 190.165 354.535 188.308C354.549 188.192 354.671 188.129 354.902 188.12C355.065 188.12 355.16 188.066 355.187 187.958L378.829 108.21C378.625 107.017 378.754 106.335 379.216 106.165C380.139 105.474 380.465 104.702 380.194 103.85C380.058 103.393 379.644 103.105 378.951 102.989C376.535 102.594 374.464 102.652 372.74 103.164L1.60901 103.15C0.577242 103.15 0.0545768 102.814 0.0410009 102.141L0.000264466 99.0055C-0.0133114 98.3057 0.495785 97.8616 1.52755 97.6732C4.02552 97.2246 6.2384 97.0003 8.16618 97.0003C112.538 97.0631 226.575 96.9689 350.279 96.7177C359.633 96.6998 369.285 96.8613 379.236 97.2022C380.051 97.6956 380.804 97.8257 381.497 97.5925C382.013 97.422 382.325 97.1484 382.434 96.7716C383.18 94.3851 383.771 92.0794 384.205 89.8545C384.714 87.2303 385.997 84.8887 387.076 82.3319C388.19 82.1524 389.228 81.8205 390.192 81.336C390.708 81.0759 391.041 80.7349 391.19 80.3133C398.725 57.9203 405.927 35.5767 412.796 13.2824C413.393 11.2997 413.814 9.25417 414.059 7.14586C414.086 6.87671 414.201 6.65243 414.405 6.473C414.676 6.21282 414.968 6.05133 415.28 5.98853L415.525 7.6707C415.548 7.81413 415.633 7.94961 415.771 8.05986C415.909 8.17011 416.093 8.25014 416.299 8.28974C419.068 8.85495 421.96 9.08819 424.974 8.98951C425.078 8.98641 425.181 8.96893 425.275 8.93817C425.369 8.90741 425.452 8.86405 425.519 8.81086C425.586 8.75767 425.635 8.69581 425.664 8.62925C425.693 8.5627 425.701 8.49289 425.686 8.4243C425.184 6.19936 425.768 4.94334 427.438 4.65625ZM427.397 135.488C418.254 144.303 408.173 154.019 403.327 164.152C403.206 164.393 403.151 164.648 403.164 164.906C403.205 166.431 403.965 167.185 405.445 167.167C405.895 167.164 406.333 167.066 406.698 166.887C407.063 166.709 407.337 166.458 407.481 166.171C413.101 154.598 424.668 143.993 435.42 133.752C436.035 133.164 436.974 132.751 438.047 132.595C451.392 130.594 464.418 129.473 477.125 129.231C478.755 129.195 479.732 128.652 480.058 127.602C480.166 127.252 480.044 126.889 479.691 126.512C479.543 126.357 479.334 126.229 479.085 126.142C478.835 126.055 478.553 126.011 478.266 126.014C466.645 126.113 455.146 126.925 443.769 128.45C441.462 128.764 441.02 128.302 442.446 127.064L475.822 98.225C475.902 98.1543 475.951 98.0705 475.965 97.9827C476.426 95.8744 475.184 95.363 472.238 96.4486C471.969 96.5463 471.727 96.6836 471.525 96.8523C458.832 107.286 446.648 117.832 434.972 128.49C434.194 129.206 433.076 129.732 431.796 129.984L407.603 134.829C407.007 134.949 406.483 135.223 406.109 135.611C405.735 135.998 405.531 136.479 405.526 136.982C405.513 137.475 406.151 137.875 407.44 138.18C407.916 138.285 408.425 138.285 408.886 138.18L426.114 134.371C428.232 133.905 428.659 134.277 427.397 135.488ZM499.86 125.664C500.465 125.913 501.368 125.808 502.372 125.374C503.375 124.939 504.395 124.21 505.208 123.346C506.022 122.483 506.561 121.556 506.709 120.769C506.856 119.982 506.599 119.401 505.993 119.152C505.388 118.903 504.484 119.007 503.481 119.442C502.478 119.876 501.458 120.606 500.644 121.469C499.831 122.333 499.291 123.26 499.144 124.046C498.997 124.833 499.254 125.415 499.86 125.664Z" fill="#42AD4D"/>
<path d="M310.018 6.3519C302.646 29.8035 295.125 53.2327 287.455 76.6394C287.251 77.2674 287.163 78.1377 287.19 79.2501C287.245 80.856 286.545 81.668 285.093 81.6859L309.244 6.60759C309.271 6.5089 309.36 6.45506 309.509 6.44609C309.645 6.42815 309.814 6.39676 310.018 6.3519Z" fill="#F9FEFB"/>
<path d="M659.607 7.02479C659.593 8.3795 660.686 9.04338 662.885 9.01647C671.166 8.92675 678.864 8.96264 685.978 9.12413C688.123 9.17796 688.985 9.90017 688.564 11.2908L664.188 91.1195L686.833 13.2151C687.458 11.0799 686.127 10.0123 682.842 10.0123H658.772C658.31 7.99372 658.588 6.99788 659.607 7.02479Z" fill="#F9FEFB"/>
<path d="M658.772 10.0122H682.842C686.127 10.0122 687.458 11.0798 686.833 13.215L664.189 91.1194L663.965 95.6007C663.938 96.0762 664.25 96.4126 664.902 96.61C668.241 97.6462 671.011 96.7446 674.371 96.8253C687.39 97.1662 698.997 97.2335 709.193 97.0272C719.416 96.8118 728.186 96.9913 735.503 97.5655C736.63 97.6552 737.193 98.0813 737.193 98.8439V101.549C737.193 102.625 736.379 103.159 734.75 103.15L709.641 103.016L662.112 102.773C661.445 102.769 660.798 102.925 660.293 103.212C659.787 103.499 659.456 103.898 659.363 104.334C658.412 108.811 657.136 113.593 655.534 118.68C649.018 139.44 642.399 161.793 635.679 185.738C634.865 188.658 634.946 191.175 629.224 191.121C584.41 190.726 539.521 190.605 494.558 190.757C494.303 190.76 494.051 190.719 493.829 190.637C493.606 190.554 493.42 190.435 493.29 190.29C493.16 190.145 493.09 189.98 493.087 189.812C493.084 189.643 493.149 189.477 493.275 189.331C517.997 159.572 544.87 130.899 573.895 103.312C574.19 103.031 574.569 102.795 575.007 102.616C575.445 102.438 575.933 102.322 576.441 102.276C599.235 100.042 625.083 98.2608 653.987 96.933C655.996 96.8343 656.81 96.148 656.43 94.874C656.329 94.5373 656.046 94.2356 655.631 94.0234C655.217 93.8112 654.698 93.7024 654.17 93.7167C629.346 94.6049 605.48 96.3543 581.165 98.3864C579.36 98.5389 578.986 98.1262 580.045 97.1483L597.192 81.4301L613.238 81.7128C613.62 81.7199 613.994 81.6358 614.293 81.4755C614.591 81.3152 614.795 81.0892 614.868 80.838L620.753 60.4098C621.622 59.3691 622.063 58.2926 622.076 57.1801L633.562 21.4106C633.631 21.1967 633.807 21.0051 634.059 20.868C634.311 20.7308 634.624 20.6563 634.946 20.6569L652.968 20.7377C653.586 20.7415 654.186 20.6058 654.668 20.3533C655.15 20.1009 655.485 19.7472 655.616 19.3516L658.772 10.0122Z" fill="#42AD4D"/>
<path d="M166.251 24.2232C164.879 20.832 162.47 19.2665 159.021 19.5266C158.138 19.5877 157.307 19.8434 156.659 20.2533C152.763 22.7205 149.851 25.5555 147.923 28.7583C143.171 36.6354 140.056 44.9834 138.576 53.8024C138.169 56.2068 138.148 58.7143 138.515 61.325C138.615 62.0279 139.056 62.6901 139.772 63.2119C140.488 63.7338 141.441 64.087 142.486 64.2184C150.326 65.2008 154.541 58.647 156.883 54.7175C158.146 52.6271 159.687 48.9084 161.506 43.5614C163.434 37.9452 165.158 32.2573 166.678 26.4975C166.054 33.8183 164.194 40.9866 161.098 48.0023C159.809 50.927 158.383 53.8159 156.822 56.6688C154.704 60.5714 147.821 67.6769 140.226 64.649C138.026 63.7608 136.94 62.2132 136.967 60.0062C137.035 55.1347 137.551 51.3621 138.515 48.6886C139.818 45.091 141.06 41.5249 142.242 37.9901C143.952 32.8763 146.701 28.09 150.489 23.6311C153.245 20.3744 156.87 18.9076 161.363 19.2306C166.033 19.5715 167.662 21.2357 166.251 24.2232Z" fill="#F9FEFB"/>
<path d="M343.29 34.7603C342.272 34.877 341.451 35.5992 340.826 36.9269C340.786 33.1499 341.132 29.6286 341.865 26.363C342.313 24.3802 342.72 24.3847 343.087 26.3764C343.535 28.7539 343.603 31.5485 343.29 34.7603Z" fill="#F9FEFB"/>
<path d="M237.323 34.7334C236.494 34.9307 235.68 35.6888 234.879 37.0077C234.988 32.7731 235.395 29.1531 236.101 26.1476C236.44 24.6942 236.78 24.6987 237.119 26.1611C237.567 28.1169 237.635 30.9743 237.323 34.7334Z" fill="#F9FEFB"/>
<path d="M238.095 35.8369C239.452 39.2012 239.995 41.9151 239.724 43.9786C239.588 45.0552 239.656 46.0106 239.928 46.845C240.471 48.4778 240.756 49.3839 240.783 49.5634C241.041 51.887 241.326 54.2017 241.638 56.5073C242.106 59.9793 243.43 63.6935 243.593 67.3539C243.661 68.7535 243.912 70.1934 244.347 71.6737C245.338 75.0111 245.657 78.3485 245.304 81.686C244.15 74.5177 242.88 67.3943 241.496 60.3157C241.265 59.1943 240.885 56.467 240.355 52.1337C240.016 49.3974 239.432 46.6745 238.604 43.9651C238.21 42.7001 238.041 39.9907 238.095 35.8369Z" fill="#F9FEFB"/>
<path d="M343.965 35.8099C345.404 38.8602 345.764 41.9509 345.044 45.082L343.965 35.8099Z" fill="#F9FEFB"/>
<path d="M346.106 48.6887C347.002 50.6265 347.498 52.6362 347.593 54.7175C347.702 57.095 347.973 59.1046 348.408 60.7464C349.12 63.4513 349.181 66.1966 349.792 68.8746C350.77 73.1361 351.191 77.4066 351.055 81.686L346.106 48.6887Z" fill="#F9FEFB"/>
<path d="M622.074 57.1802C622.06 58.2927 621.619 59.3692 620.75 60.4099L597.189 81.4302L580.043 97.1484C578.984 98.1263 579.357 98.539 581.163 98.3865C605.477 96.3544 629.344 94.605 654.167 93.7168C654.696 93.7025 655.214 93.8113 655.629 94.0235C656.043 94.2357 656.327 94.5374 656.428 94.8741C656.808 96.1481 655.993 96.8344 653.984 96.9331C625.081 98.2609 599.232 100.042 576.439 102.276C575.931 102.322 575.443 102.438 575.005 102.616C574.566 102.795 574.188 103.032 573.893 103.312C544.868 130.899 517.994 159.572 493.273 189.331C493.147 189.478 493.082 189.643 493.085 189.812C493.087 189.98 493.157 190.145 493.287 190.29C493.418 190.435 493.604 190.555 493.826 190.637C494.049 190.719 494.301 190.76 494.555 190.757C539.519 190.605 584.408 190.726 629.222 191.121C634.944 191.175 634.862 188.658 635.677 185.738C642.397 161.793 649.015 139.44 655.532 118.68C657.134 113.593 658.41 108.811 659.36 104.335C659.454 103.898 659.785 103.499 660.29 103.212C660.796 102.925 661.442 102.769 662.109 102.774L709.639 103.016L664.085 103.11C663.533 103.112 662.987 103.186 662.48 103.33C661.973 103.474 661.514 103.684 661.131 103.947C660.747 104.21 660.447 104.522 660.248 104.864C660.049 105.205 659.955 105.57 659.971 105.936C660.134 109.408 658.586 112.301 657.609 115.652C650.617 139.22 643.612 162.659 636.593 185.967C636.2 187.294 635.67 188.681 635.005 190.125C634.753 190.662 634.248 191.133 633.562 191.467C632.877 191.801 632.048 191.981 631.197 191.982L494.331 191.996C493.53 191.996 493.055 191.735 492.906 191.215C492.512 189.815 491.345 188.685 489.403 187.824C488.915 187.537 488.867 187.16 489.261 186.693C501.357 172.133 515.232 156.719 530.885 140.454C532.201 139.081 531.821 138.83 529.744 139.7C516.854 145.07 501.601 152.027 487.245 154.18C481.027 155.114 477.368 153.674 476.269 149.861C474.558 143.939 486.817 133.537 492.132 129.338C493.001 128.656 493.978 128.576 495.065 129.096L495.818 129.459C496.755 129.908 496.863 130.433 496.144 131.034C489.777 136.426 484.754 141.885 481.075 147.411C480.836 147.771 480.725 148.161 480.749 148.552C480.772 148.944 480.931 149.327 481.212 149.671C481.493 150.015 481.889 150.312 482.37 150.538C482.851 150.765 483.404 150.915 483.987 150.978C485.874 151.184 487.754 151.027 489.627 150.507C502.104 147.044 515.639 142.038 530.233 135.488C535.405 133.16 539.722 131.182 543.164 127.67C551.282 119.389 559.285 111.458 567.173 103.877C567.228 103.824 567.264 103.762 567.278 103.698C567.291 103.634 567.281 103.568 567.25 103.507C567.218 103.445 567.165 103.39 567.095 103.344C567.025 103.299 566.94 103.265 566.847 103.245C566.426 103.155 565.999 103.132 565.564 103.177C540.15 105.806 517.071 108.708 496.327 111.884C494.725 112.126 493.612 111.75 492.987 110.754C492.689 110.287 492.953 109.735 493.782 109.098C494.086 108.863 494.494 108.702 494.942 108.641C520.343 104.918 544.922 101.935 568.68 99.6918C571.056 99.4675 572.922 98.7005 574.28 97.3906C579.425 92.4114 584.53 87.4322 589.594 82.453C598.649 74.3607 607.636 66.2504 616.555 58.1222C618.103 56.7137 619.943 56.3997 622.074 57.1802Z" fill="#F9FEFB"/>
<path d="M620.752 60.4099L614.867 80.8381C614.795 81.0893 614.591 81.3153 614.292 81.4756C613.994 81.6358 613.62 81.7199 613.238 81.7128L597.191 81.4302L620.752 60.4099Z" fill="#256229"/>
<path d="M384.896 81.6993C385.873 81.7262 386.599 81.937 387.074 82.3318C385.995 84.8887 384.712 87.2303 384.203 89.8544C383.769 92.0794 383.178 94.3851 382.431 96.7715C382.323 97.1483 382.011 97.4219 381.495 97.5924C380.802 97.8256 380.049 97.6955 379.234 97.2021C380.47 96.4754 381.61 95.3046 382.655 93.6897C382.913 93.2771 382.995 92.8509 382.9 92.4113C382.506 90.4645 382.9 88.6567 384.081 86.988C385.344 85.2116 385.12 83.5833 384.896 81.6993Z" fill="#F9FEFB"/>
<path d="M514.23 82.8969L525.878 82.9104C531.682 83.5025 538.708 84.6599 542.78 87.6339C543.934 88.4862 544.09 89.4327 543.249 90.4734C543.154 90.5811 543.031 90.6663 542.882 90.7291C541.552 91.3033 540.411 91.1687 539.461 90.3254C535.572 86.9207 527.243 86.7727 521.113 86.7592C512.153 86.7323 503.6 87.1315 495.455 87.9569C466.81 90.8278 439.488 95.8877 413.49 103.137C412.94 103.283 412.336 103.288 411.8 103.15C410.32 102.782 409.73 102.159 410.028 101.28C410.079 101.12 410.184 100.971 410.336 100.842C410.488 100.714 410.682 100.61 410.904 100.539C415.859 98.8618 421.772 97.2335 428.641 95.6545C457.069 89.1411 485.599 84.8886 514.23 82.8969Z" fill="#F9FEFB"/>
<path d="M427.393 135.488C428.656 134.277 428.228 133.905 426.11 134.371L408.882 138.18C408.421 138.285 407.913 138.285 407.437 138.18C406.147 137.875 405.509 137.475 405.522 136.982C405.527 136.479 405.732 135.998 406.105 135.611C406.479 135.223 407.003 134.949 407.599 134.829L431.792 129.984C433.073 129.732 434.19 129.206 434.969 128.491C446.644 117.832 458.828 107.286 471.522 96.8524C471.723 96.6837 471.966 96.5463 472.234 96.4487C475.18 95.3631 476.423 95.8745 475.961 97.9828C475.948 98.0706 475.898 98.1544 475.818 98.225L442.442 127.064C441.017 128.302 441.458 128.764 443.766 128.45C455.142 126.925 466.641 126.113 478.262 126.014C478.549 126.011 478.831 126.055 479.081 126.142C479.331 126.229 479.54 126.357 479.688 126.512C480.04 126.889 480.163 127.252 480.054 127.602C479.728 128.652 478.751 129.195 477.122 129.231C464.415 129.473 451.389 130.594 438.043 132.595C436.97 132.751 436.031 133.164 435.417 133.752C424.664 143.993 413.098 154.598 407.477 166.171C407.333 166.458 407.06 166.709 406.695 166.888C406.329 167.066 405.891 167.164 405.441 167.167C403.961 167.185 403.201 166.431 403.16 164.906C403.147 164.648 403.202 164.393 403.323 164.152C408.17 154.019 418.25 144.303 427.393 135.488Z" fill="#F9FEFB"/>
<path d="M379.219 106.165C378.839 103.671 376.68 102.67 372.743 103.164C374.467 102.652 376.538 102.594 378.954 102.989C379.647 103.106 380.061 103.393 380.196 103.85C380.468 104.702 380.142 105.474 379.219 106.165Z" fill="#F9FEFB"/>
<path d="M378.826 108.21L355.184 187.958C355.157 188.066 355.062 188.12 354.899 188.12C354.668 188.129 354.546 188.192 354.532 188.308L372.778 123.282C372.9 122.87 373.131 122.493 373.471 122.152C374.855 120.735 375.276 118.981 374.733 116.89C374.611 116.397 374.74 115.939 375.12 115.518C376.654 113.795 377.197 111.916 376.749 109.879C376.641 109.359 376.926 108.964 377.604 108.695L378.826 108.21Z" fill="#F9FEFB"/>
<path d="M500.641 121.469C498.948 123.267 498.596 125.145 499.857 125.664C501.117 126.182 503.512 125.145 505.206 123.346C506.899 121.548 507.251 119.67 505.99 119.152C504.73 118.633 502.335 119.671 500.641 121.469Z" fill="#F9FEFB"/>
<path d="M488.614 188.497C488.871 189.771 488.227 190.735 486.679 191.39C485.756 191.794 484.351 191.996 482.464 191.996C454.022 192.005 425.574 192 397.119 191.982C390.195 191.973 384.928 191.61 381.316 190.892L484.154 190.731C484.819 190.731 485.389 190.578 485.864 190.273L488.614 188.497Z" fill="#F9FEFB"/>
</svg>
